<?xml version="1.0" encoding="UTF-8"?>
<svg id="Layer_1" data-name="Layer 1" xmlns="http://www.w3.org/2000/svg" width="130.878" height="113.368" viewBox="0 0 130.878 113.368">
  <g id="Layer_1-2" data-name="Layer 1-2">
    <path d="M46.177,48.138c.563-.607-.637-1.104-.281-1.607.43-.615,3.385-.022,3.488-1.333s-3.059-1.844-4.007-1.859c-6.925-.096-11.569,4.236-19.427,1.466-.289-.104-.474.089-.385-.4,3.466,1.104,6.562,1.333,10.132.622s6.821-2.155,10.488-1.866l-.711-.881c.274-.059,1.489-.437,1.563-.57.119-.2-.007-.704.304-1.207.341-.541,1.178-.778,1.607-1.252l-.259-1.4,2.111-.378-1.059-.8c1.296-.57,3.17-.622,4.496-.052.689.296,1.022.963,1.378,1.111.511.222.933-.022,1.511.444.267.215,1.022,1.629,1.185,2.015.489,1.141.244,2.466,1.741,2.607-1.94-3.429,2.229-5.177,4.355-6.932.215-.096-.141.637.348.526.518-.119,1.281-.918,1.948-.881.615.037,1.77.948,2.77.533l-.356,1.422c.156.141,2.422-.37,2.111.867l-1.578.911c1.392.348,3.2-.148,4.266.978l-3.377-.089.356.526c-2.77.393-4.666,2.711-7.643,2.133.163.8,1.341.481,2.163.948,1.141.659.948,2.022.837,3.207-.074.822-1.726,5.599-.778,5.799.859.178-.222-1.985.533-2.311l.496.215,1.185,1.741c-.681-1.541-1.178-3.185-1.059-4.881.059-.955.681-5.103,2.133-4.644,2.015.637.237,2.77-1.067,3.133l.096.363,1.311.452c-.163,1.444-2.059,1.4-.193,2.674.111.593-.622.704-.689.778.156-.252.393-.444.37-.785l-.874-.874,1.215-1.629c-.259-.474-1.711-.096-1.6-.711.119-.659,2.311-1.341,2.066-2.4l-.459-.622h-.711c-2,2.948-1.607,7.703.541,10.488.148.193,1.311,1.385,1.407,1.415.215.074.533-.126.785-.074.77.17,1.296.43,1.8,1.052.659-.607,1.452-1.267,2.4-1.237-.037-.296-.052-.718-.437-.711-.852.015-1.007,1.615-2.007,1.022-.407-.992-.17-1.97-.044-2.977-.141-.156-2.222,1.733-3.022,1.341-.696-1.133-.237-2.059-1.77-2.696-.133-.452.281-.504.348-.6-.526.607.341.644.622.889.8.689.459,1.192.785,2.059.792.585,3.185-1.763,3.385-1.526-.007.555-.504,3.251.096,3.377.511-.03.63-.659.933-.889,1.178-.904,1.363.667,1.585.726.926.237,1.318-.674,1.741-.541l.541.881c.296-.363.689-.511,1.081-.193.593,1.311,1.015,2.452,2.563,2.859-.726-1.437.578-1.444.8-1.94.163-.37-.63-1.422.8-1.259.119-.111-1.607-2.14-.985-3.029.822-1.185,2.644,2.844,3.94,1.807.97-.778-.867-2.548-.237-3.177.237-.237.741-.044.674-.489s-1.081-1.089-1.067-1.422c.022-.615,1.185.193,1.067-.356-.326-1.452-3.733-3.118-3.733-3.377.244-.622,2.437-.807,1.6-1.6-.637-.607-4.274-1.037-5.244-1.511h-4.266c-.704.889.918,2.163,1.407,3.037,1.289,2.296-.985,2.481-1.407,1.585-.244-.511-.096-2.17-.385-2.992-.778-2.244-3.444-.704-5.133-.563-.207.015-1.326.17-1.148-.259,1.674-1.378,4.037-.822,6.044-.8-.037-.578-.081-1.074.444-1.422l.689.518c1.259-1.504,2.007-3.044,4.303-1.948.23.578-.415.711-.637,1.074.83-.178,1.955-.378,2.733.022.667.348,1.622,2.4,2.726,2.963s4.54,1.2,5.881,1.407c4.718.733,9.636.563,14.169-1.015l.089.348c-6.495,2-13.28,1.674-19.731-.356.289,1.141-1.178.822-1.778,1.511,1.452.926,3.088,1.837,3.733,3.548l-1.067.356c.755.741,1.763,1.518.163,1.963.274,1.022,1.385,3.274-.43,3.296-1.489.022-1.666-1.874-3.111-1.97-.326,1.289.726,1.859.904,2.911l-.904.289c.474,1.474.111.978-.526,1.511s.037.867,0,1.504h-.711c.281,1.067.363,2.289-.356,3.2,3.051.674,2.022,5.162-.97,4.985-1.081-.067-.785-.178-2.007-.037-.696.081-1.511-.444-1.459-1.215l2.222.659c1.4-.985.896-3.096-.867-3.163-.385,1.689-1.541,1.637-2.6,2.592-.119.311.948.563,1.244.881.941.992.77,3.725-.711,4.185,1.429,1.163,1.622,3.792-.489,4.222-.452.089-1.222-.133-1.466.215,2.918.518,2.903,5.17-.356,4.985,1.666,2.563-1.548,4.703-3.651,2.496-.474-.496-.459-1.385-1.148-1.244,3.007,5.14-5.696,6.133-3.733.356-3.163.933-5.407-3.251-1.955-4.718l1.955-.259c-.4.052-.77-.652-.97-.667-.141-.007-1.029.444-1.578.422-2.518-.096-3.688-3.155-1.363-4.466-1.237-1.022-1.4-.296-2.452.037-3.762,1.207-4.592-2.792-1.644-4.481-1.437-1.778-.593-3.681,1.607-4.007-.378-.407-.726-.504-.926-1.111-1.459-4.407,7.325-4.903,5.192.044.822.148,1.155-.6,1.696-1.059l-.615-1.703.615-.622.452.267c.874,1.022-.941,2.126,1.052,3.037.844.393,1.911.415,2.666-.193,1.141-.926-.17-1.348-.444-2.385-.156-.593.111-1.215-.37-1.592-.422-.333-1.104.489-1.77.511-.467.015-.837-.326-1.2-.296s-.881.533-1.311.622c-1.881.393-3.948-1.044-4.274-2.933-.622-3.659,3.059-3.548,5.177-1.844l1-.696c-1.207-1.652.215-3.755.511-5.621.348-2.185.585-3.94-2.289-3.8.015.607.074,1.689-.578,2.007-1.215.111-2.533-.778-3.696.252-1.267,2,1.378,3.392,1.252,5.384-3.096-1.252-3.674.689-2.844,3.377-2.037-.104.178,1.637-.178,2.126l-.844.23c-.474.593-.052,1.229-.059,1.8,0,.311,0,1.689-.022,1.778-.052.267-.822.8-.496,1.533l-.548-.111-.874-3.266-.711.178-.356-3.2-.533,1.778-1.237-.356c-.089.289-.156,1.348-.622,1.244-.778-.659-1.37-1.4-1.341-2.489l-.622.533c-.778-.77-.541-1.866-.696-2.851l-1.259-.341c-.452-.844,0-2.4-1.378-2.103-.467.104-.83.822-1.104.496-.815-.97.067-2.555.792-3.296.185-.185.511-.23.533-.252-.859,1.192-1.57,1.6-1.244,3.377,2-1.511,2.333-.03,2.666,1.778,1.807-.785,1.007,1.8,1.6,2.844l.356-.593.356-.03c.393.955.393,1.94,1.333,2.577l.622-1.17,1.067.281.444-2.311c.807,1.007.526,2.518.8,3.733,1.385-.481.755,2.592,1.778,3.2-.333-.748.348-1.118.363-1.185.059-.333-.2-.704-.185-1.037.03-.504.2-2.6.474-2.77.2-.126.533-.141.77-.163l-.859-1.541.874-.696c-.941-2.377.385-4.881,3.007-3.274-.185-1.778-2.918-3.711-1.185-5.451,1.637-1.637,4.622,1.326,4.029-2.015h-2.933c-.081,0-1.215-.526-1.326-.63-.244-.23-.252-.578-.415-.741-.548-.526-1.178-.963-1.726-1.563-1.674-1.807-1.933-3.274-5.118-2.459-1.644.422-.792,1.252-1.178,1.844-.081.126-1.007.407-1.326.63-.948.637-1.385,2.007-2.496,2.392l2.474.985c1.474,2.474-1.681,2.059-3.185,2.57-.104.126.8.489.444,1.244-.052.111-.237.133-.267.178l-.059.007ZM69.285,36.229c-.689.6-2.459-.496-2.674-.459-.437.074-1.489.822-1.94.911-.23.044-.326-.289-.659-.148-.119.052-1.963,1.237-2.177,1.4-1.518,1.104-2.733,3.244-1.429,4.962l-.533.444,3.185-.015.304-.859c2.637.785,4.548-1.496,6.999-1.97l-.533-.526h3.022l-3.377-.541c-.378-.733,1.659-1.207,1.6-1.333-.593-.667-1.526-.407-2.311-.444l.533-1.422h-.007ZM53.376,36.584c-.992-.141-2.259.104-3.288,0l1.067,1.067-2.311.356c1.104,1.926-.681,1.637-1.259,2.563-.252.407-.133,1.022-.393,1.304-.207.23-1.37.422-1.37.667,1.333,1.178,2.222-1.333,3.281-2.044.378-.252.896-.378,1.326-.548-.667-1.585,1.163-2.066,2.422-2.118,3.2-.141,3.407,2.563,5.592,4.088.059-.659-1.089-3.281-1.496-3.57-.356-.252-.867-.119-1.304-.296-.726-.296-.978-1.289-2.266-1.466ZM81.639,39.961h-2.666s-.356-.259-.178-.356c.074-.178.852-.578.452-.8-.533-.141-1.267-.163-1.792,0-1.118.341-1.348,2.963-2.829,1.696l-.178.889c3.214-.555,6.103.178,9.154,1.067l-1.955-2.489-.007-.007ZM72.129,41.739c-.881-.044-1.696,0-2.555.193-.259.059-.918.207-1,.511l3.555-.704ZM74.24,41.754c-.067-.044-.504-.089-.518.067l.711.622c.037-.133-.156-.667-.193-.696v.007ZM74.795,43.161c.326.718-.119,2.911.652,3.17.385.133.926.059.955-.422.163-.911-.955-2.155-1.607-2.748ZM66.959,52.204c.133-.244-.593-1.163-.785-1.4l-.267,2.126c.518-.037.985.074,1.074.637-.326,1.363-1.585,1.474-2.674.792-.281,1.052-.407,2.37.459,3.185,1.304-1,2.659.348,3.363-1.229.363-.822.548-3.074-.452-3.474-.289-.111-1.133.333-1.237-.178-.081-.378.467-.378.518-.459ZM64.486,57.907c-.156-.711-.652-1.067-.718-1.866s.356-1.289.281-2.037c-1.237-1.148-4.177-1.815-4.644.341-.57,2.652,2.689,5.125,5.081,3.562ZM64.486,54.182c1.037.511,1.763.496,2.296-.622-.755-.867-1.822-.193-2.296.622ZM69.167,54.648c-.148-.133-.17-.452-.415-.467l-.178,1.955,1.244-.711c.081-.452-.4-.548-.652-.77v-.007ZM77.462,55.248c0-.533-.4-.726-.711-.267l.711.267ZM78.217,57.604c-.259.252-.237.941-.918,1.126-.844.23-.378-.541-.022-.911.615-.644,1.311-.585.548-1.77-.904-1.407-1.718-.193-2.029-.274l-.689-.667c-.77.17-1.578.489-2.059,1.163l.156,2.007c.644.096,1.022-.393,1.666-.348,2.081.133,3.037,2.622,2.777,4.436l.511-.193.141-.889c.83-.452,1.496-.281,2.37-.244.659-.97.896-2.459-.185-3.207-.511-.356-1.77-.711-2.259-.23h-.007ZM76.218,55.071h-.533v.356h.533v-.356ZM79.773,57.204l-1.059-2.059-1.074.281c.467.563.83.978.711,1.778,0,0,1.422,0,1.422,0ZM72.299,56.67l-2.044-1.17c-2.259.541-2.592,3.614-1.067,5.081.289-.933-.563-1.674-.8-2.489.955.541,1.096,1.644,1.089,2.637.215.348,1.541.074,1.881-.096.37-.185.726-1.466,1.267-1.778.17-.474-.244-.37-.318-.548-.311-.741-.178-1.289.296-1.911-.407-.555-.985-1.089-1.733-.97-.044.296,1.792.889,1.422,1.244h.007ZM68.033,57.559l.178-.711-.533.444v.267h.356ZM72.833,58.27l-.178-1.067h-.17c-.015.385-.096.926.348,1.067ZM67.152,57.381c-.526.067-1.97-.267-1.955.533.178.141,1.815-.059,1.955-.533ZM77.106,58.448c.37.037.748-.333.711-.711l-.711.711ZM73.055,58.663c-.156.133-.237.792-.422,1.089-.215.341-.733.644-.822.948-.489,1.622,1.911,4.088,3.57,3.577.215-.474,1.992-1.866,2.052-2.044.393-1.126-.711-3.525-1.918-3.888-.518-.156-2.081,0-2.452.311l-.007.007ZM60.205,63.233c.096-1.192,1.4-1.111,2.252-1.385,1.259-2.089-.904-3.666-2.992-2.985-2.911.941-2.311,4.451.733,4.377l.007-.007ZM64.486,60.581c.615-.341.563-1.807-.356-1.6l.356,1.6ZM71.418,60.937h-2.126c-.755,2.266-3.518,1.933-4.718.185l-.978,1.237c2.57,1.081,1.385,4.103-1.029,4.399-2.837.356-1.415-2.229-3.229-3.074s-3.2.363-2.814,2.281,2.215.415,3.333,1.459c-.741,1.192-2.185-.096-2.718-.044-.859.074-1.77,1.429-1.866,2.229-.311,2.681,4.177,1.889,4.037,1.044-.711-.667-.889-2.4.481-1.733.511.415.126,1.141.089,1.681,1.274,1.222,3.644.385,3.2-1.548-.548-.222-1.067-.2-1.578-.6-.593-.452-.526-1.111-1.385-1.289-.185-.222.518-1.081.815-.607v.6c1.096-.104,1.792.415,2.311,1.341,2.37.141.63-1.2,1.044-2.148s.822-.059.874.593c.067.896-.541,1.526.918,1.903,3.2.837,4.155-3.029,1.963-4.807-.304-.111-1.585.948-2.318.185l-.163-.518c.6-1.015,1.889.096,2.474-.185.926-1.659,1.681-2.185,3.555-1.341l-.178-1.244h.007ZM80.306,61.292l-1.852.163-.104.548c.696.067,1.533-.074,1.955-.711ZM78.706,62.359c.778.807,1.081,1.185.874,2.385-.067.378-.637.918-.348,1.081,2.296.904,4.303-2.222,2.585-3.829-1.326-1.237-1.696.4-3.111.363ZM69.833,66.106c.704-.437,2.14,1.244,2.459-.652.237-1.407-.037-2.77-1.489-3.288-1.681-.6-1.785.6-2.555,1.696,3.163,2.77-.207,7.399-3.496,4.385-.674.615-1.592.341-1.333,1.57.378-.296.763-1.281,1.429-.807.792.563-.896,1.903-1.229,2.348.733,2.318,4.059,1.541,4.777-.385-.363-.6-.696-.896-.533-1.681,1.133-.126,1.118.733.889,1.6,2.977.674,4.859-1.607,2.763-4.022-.696.674-2.437-.281-1.674-.763h-.007ZM62.175,62.181c-.748.059-1.541.274-1.778,1.067.17.141,1.652-.77,1.778-1.067ZM62.886,62.181h-.533v.356c.244.052.474-.096.533-.356ZM59.509,63.603c1.496.244.807,2.6,2.044,2.844,2.748.526,4.718-2.659,1.741-4.051l-1.866.918-1.918.296v-.007ZM76.04,64.136c.733,0,1.148-.778,1.244-1.422-.289.052-1.355,1.326-1.244,1.422ZM75.151,64.669c-1.059.015-1.926-.57-2.666-1.244.318,1.192.37,2.489-.711,3.288,1,.852,1.015,2.089.711,3.288,1.163-.622,2.081-.222,3.251-.022,1.674-.985,1.133-4.836-1-4.251-.178.052-.57,1.111-1.355,1.17-1.718-1.037,1.674-1.237,1.763-2.237l.007.007ZM67.685,63.781c-.622-.052-1.437-.481-1.948.089,0,.363,1.792.437,1.948-.089ZM78.351,65.736l-1.778-.533c.104.237.422.6.659.674.178.052,1.096.2,1.118-.141ZM74.44,65.736c-.511-.03-1.244.296-1.244.889.185.178,1.185-.585,1.244-.889ZM64.834,67.691l-.348-1.422c.015.393-.111,1.237.348,1.422ZM71.063,66.447l-1.067-.178c-.163.778,1.504.637,1.067.178ZM60.753,66.802c-.193-.193-.548.163-.356.356s.548-.163.356-.356ZM59.331,67.336l-1.6-.178c.119.459,1.37.541,1.6.178ZM62.886,68.58c-.259-.807-.992-1.118-1.778-1.244.037.874,1.015,1.281,1.778,1.244ZM59.642,69.165c-.044-.052-.474-.252-.489-.23-.178,2.57,1.141.97.489.23ZM63.419,71.069c.318-.015,2.029-1.933,1.155-1.948-.555-.007-1.244,1.4-1.155,1.948ZM68.567,70.535c0-.4.096-.807-.267-1.059-.474.281-.148.859.267,1.059ZM75.329,70.18c-.844-.17-1.726-.326-2.563-.015l-.104.548c.548,0,1.096.037,1.644-.044.215-.03.963-.222,1.022-.489ZM73.373,74.09c2.54.807,4.348-1.496,2.303-3.474-.607-.267-2.874,1.37-3.459-.259l-.8.622c.518.711,1.429,1.207,1.422,2.222l.637-.704c1.437.393-.385,1.289-.104,1.592ZM63.241,71.246c.044-.044-.022-.541,0-.711l-.711.622c.059.156.681.111.711.089ZM68.93,71.069c-.37-.052-.407-.015-.356.356l.356-.356ZM72.818,74.061c-.185-1.133-.718-2.637-2.015-2.822-4.236-.6-4.029,5.688.081,5.162v1.244l.555-2.37,1.378-1.207v-.007ZM63.412,71.424c-1.274.2-3.177-.2-3.377,1.689-.259,2.407,2.037,3.029,3.918,2.222-.867-3.666,2.348-2.363.185.089l1.948,1.155c.007-.778.837-1.415,1.607-1.422-.237-.926-.378-2,.178-2.844-.57.141-.918.555-1.555.667-1.274.215-2.659-.156-2.896-1.555h-.007ZM73.729,72.846c-.207-.222-.718.378-.533.711.244-.052.674-.555.533-.711ZM64.308,73.202c-.052.578-.711,1.289-.089,1.77.333-.007.792-1.607.089-1.77ZM73.551,74.268c-.407-.341-.8-.03-.533.356.022.03.681-.23.533-.356ZM72.84,74.624s.067-.378-.089-.356l-.267.356c.111-.007.326.03.356,0ZM71.455,77.608c1.8-.074,1.778,3.096,3.518,1.2,1.022-1.111.696-3.111-.652-3.807-1.644-.852-1.296.489-1.926,1.052-.318.281-.755.281-1.089.518l.141,1.037h.007ZM71.774,76.046c.237.237,1.015-.763.889-1.067-.215.074-1.074.874-.889,1.067ZM70.707,76.579c-.926.089-1.6-.015-2.326-.607-.252-.207-.23-.607-.518-.63.193,1.207-.733,1.526-1.778,1.422-.289,1.918.622,3.762,2.681,3.837.281-.689.156-1.385.622-2.052.585-.837,1.689-.6,1.326-1.963l-.007-.007ZM67.685,75.512c-.718-.052-1.192.444-1.422,1.067.644-.022,1.533-.252,1.422-1.067ZM63.552,76.623c-3.007.393-2.6,4.088-.052,4.399,1.541.193,1.548-.237,2.555-1.155-1.074-1.644.333-3.622-2.511-3.244h.007ZM65.908,76.757h-.356l.178.889h.17v-.889h.007ZM71.233,77.823c-.326-.318-.296.111-.356.259-.215.541-.267.963-.63,1.504-.652.963-1.689,1.126-.163,2.496,2.192,1.978,4.725-.711,2.851-2.496-.422-.407-.955-.518-1.348-.963-.222-.259-.326-.77-.356-.8ZM73.188,79.423c-.178-.837-.948-1.481-1.778-1.6.274.859,1.096,1.148,1.778,1.6ZM69.285,80.134c.711-.452,1.296-1.244,1.237-2.133-.941.37-1.392,1.104-1.237,2.133ZM67.322,80.312l-1.067-.711c-.178.17.904,1.311,1.067.711ZM65.552,80.845c.311-.156.785-.281.704-.711-.326.267-.837.274-.704.711ZM66.53,80.556c-.081,0-1.341.741-1.415.837-.792,1.029-.267,3.088,1.141,3.459,2.526.681,3.422-2.77,2.244-3.666-.081-.059-1.866-.637-1.97-.63Z"/>
  </g>
  <g>
    <path d="M2.52,14.63V5.37c0-.387-.043-.677-.13-.87-.087-.193-.257-.327-.51-.4s-.633-.11-1.14-.11c-.027,0-.04-.04-.04-.12s.013-.12.04-.12c.32,0,.676.01,1.07.03.393.02.803.03,1.23.03.466,0,.893-.01,1.28-.03s.733-.03,1.04-.03c.027,0,.04.04.04.12s-.013.12-.04.12c-.507,0-.887.04-1.14.12-.253.08-.424.22-.51.42-.087.2-.13.494-.13.88v9.22c0,.387.04.68.12.88.08.2.25.333.51.4.26.067.643.1,1.15.1.027,0,.04.04.04.12s-.013.12-.04.12c-.32,0-.67-.006-1.05-.02-.38-.013-.804-.02-1.27-.02-.427,0-.84.007-1.24.02-.4.014-.76.02-1.08.02-.027,0-.04-.04-.04-.12s.013-.12.04-.12c.506,0,.89-.033,1.15-.1.26-.067.433-.2.52-.4.086-.2.13-.493.13-.88ZM3,9.93v-.38h9v.38H3ZM11.56,5.41c0-.387-.04-.68-.12-.88-.08-.2-.247-.34-.5-.42s-.64-.12-1.16-.12c-.04,0-.06-.04-.06-.12s.02-.12.06-.12c.307,0,.657.01,1.05.03.393.02.816.03,1.27.03.426,0,.84-.01,1.24-.03.4-.02.753-.03,1.06-.03.04,0,.06.04.06.12s-.02.12-.06.12c-.507,0-.89.037-1.15.11s-.434.207-.52.4c-.087.193-.13.483-.13.87v9.26c0,.387.043.68.13.88.086.2.26.333.52.4s.643.1,1.15.1c.04,0,.06.04.06.12s-.02.12-.06.12c-.307,0-.66-.006-1.06-.02-.4-.013-.813-.02-1.24-.02-.454,0-.877.007-1.27.02-.394.014-.744.02-1.05.02-.04,0-.06-.04-.06-.12s.02-.12.06-.12c.52,0,.907-.033,1.16-.1s.42-.2.5-.4c.08-.2.12-.493.12-.88V5.41Z"/>
    <path d="M33.72,16.01c.053,0,.08.04.08.12s-.027.12-.08.12c-.373,0-.758-.013-1.15-.04-.393-.026-.77-.04-1.131-.04-.412,0-.77.014-1.068.04-.301.027-.631.04-.991.04-.054,0-.08-.04-.08-.12s.026-.12.08-.12c.747,0,1.217-.1,1.411-.3s.162-.58-.09-1.14l-4.521-9.72.38-.34-3.86,9.28c-.333.813-.36,1.387-.08,1.72.28.333.874.5,1.78.5.066,0,.1.04.1.12s-.034.12-.1.12c-.4,0-.767-.013-1.1-.04-.333-.026-.753-.04-1.26-.04-.467,0-.844.014-1.13.04-.287.027-.63.04-1.03.04-.053,0-.08-.04-.08-.12s.027-.12.08-.12c.36,0,.673-.066.94-.2.267-.133.517-.373.75-.72.233-.346.483-.84.75-1.48l4.18-10.06c.026-.04.07-.06.13-.06s.097.02.11.06l4.641,9.96c.307.667.58,1.184.82,1.55.238.367.479.617.719.75s.508.2.801.2ZM23.84,10.51l.18-.36h5.18l.14.36h-5.5Z"/>
    <path d="M51.88,3.75c.04,0,.06.04.06.12s-.02.12-.06.12c-.414,0-.777.086-1.091.26s-.59.547-.829,1.12l-4.4,10.86c-.014.053-.084.08-.21.08-.127,0-.203-.027-.23-.08l-4.939-10.82c-.228-.52-.467-.887-.72-1.1-.254-.213-.594-.32-1.021-.32-.04,0-.06-.04-.06-.12s.02-.12.06-.12c.187,0,.377.007.57.02.192.013.387.023.58.03.192.007.376.01.55.01.32,0,.613-.003.88-.01.267-.006.51-.017.729-.03.221-.013.431-.02.631-.02.04,0,.06.04.06.12s-.02.12-.06.12c-.507,0-.867.083-1.08.25-.214.167-.207.49.02.97l4.48,9.9-.54.74,4.279-10.6c.187-.467.181-.793-.02-.98-.2-.187-.674-.28-1.42-.28-.04,0-.061-.04-.061-.12s.021-.12.061-.12c.307,0,.603.01.89.03s.657.03,1.11.03c.387,0,.696-.01.93-.03s.517-.03.851-.03Z"/>
    <path d="M62.459,9.37l.22-.18c.761,0,1.427.147,2,.44.573.293,1.017.693,1.33,1.2s.471,1.08.471,1.72c0,.72-.167,1.367-.5,1.94-.334.573-.79,1.023-1.37,1.35-.58.327-1.23.49-1.95.49-.44,0-.927-.02-1.46-.06s-1.033-.06-1.5-.06c-.427,0-.84.007-1.24.02-.4.014-.76.02-1.08.02-.026,0-.04-.04-.04-.12s.014-.12.04-.12c.507,0,.89-.033,1.15-.1.26-.067.437-.2.529-.4.094-.2.141-.493.141-.88V5.37c0-.387-.044-.677-.13-.87-.087-.193-.257-.327-.511-.4-.253-.073-.633-.11-1.14-.11-.04,0-.06-.04-.06-.12s.02-.12.06-.12c.307,0,.656.01,1.05.03s.804.03,1.23.03c.347,0,.75-.02,1.21-.06s.836-.06,1.13-.06c.786,0,1.417.124,1.89.37.474.247.816.57,1.03.97.213.4.32.84.32,1.32,0,.76-.271,1.4-.811,1.92s-1.21.887-2.01,1.1ZM61.58,3.95c-.32,0-.58.023-.78.07-.2.047-.343.17-.43.37-.087.2-.13.54-.13,1.02v3.92l-.601-.16c.427.027.78.043,1.061.05s.439.01.479.01c1.106,0,1.887-.263,2.34-.79.453-.526.681-1.176.681-1.95,0-.453-.084-.874-.25-1.26-.167-.387-.44-.697-.82-.93-.38-.233-.896-.35-1.55-.35ZM62.379,16.01c1.014,0,1.757-.263,2.23-.79.473-.527.71-1.25.71-2.17,0-1-.308-1.82-.92-2.46-.614-.64-1.454-.966-2.521-.98-.373-.013-.74-.013-1.1,0-.36.014-.721.047-1.08.1l.54-.22v5.14c0,.333.053.604.16.81.106.207.312.354.619.44.307.087.761.13,1.36.13Z"/>
    <path d="M75.718,5.39v9.16c0,.374.044.654.131.84.086.187.253.313.5.38.246.067.609.1,1.09.1h2.56c.707,0,1.247-.233,1.62-.7.373-.466.613-1.08.72-1.84,0-.04.037-.057.11-.05.073.007.11.03.11.07-.04.347-.08.763-.12,1.25s-.061.937-.061,1.35c0,.2-.1.3-.3.3h-9.2c-.026,0-.04-.04-.04-.12s.014-.12.04-.12c.507,0,.887-.033,1.141-.1.253-.067.423-.2.51-.4.087-.2.13-.493.13-.88V5.37c0-.387-.043-.677-.13-.87s-.257-.327-.51-.4c-.254-.073-.634-.11-1.141-.11-.026,0-.04-.04-.04-.12s.014-.12.04-.12c.32,0,.677.01,1.07.03s.803.03,1.229.03c.453,0,.877-.01,1.271-.03s.743-.03,1.05-.03c.026,0,.04.04.04.12s-.014.12-.04.12c-.507,0-.887.037-1.14.11-.254.073-.424.21-.51.41-.087.2-.131.494-.131.88Z"/>
    <path d="M91.278,14.63c0,.387.04.68.12.88.08.2.25.333.51.4.261.067.644.1,1.15.1.026,0,.04.04.04.12s-.014.12-.04.12c-.32,0-.674-.006-1.061-.02-.387-.013-.813-.02-1.279-.02-.44,0-.857.007-1.25.02-.394.014-.75.02-1.07.02-.04,0-.06-.04-.06-.12s.02-.12.06-.12c.507,0,.89-.033,1.15-.1.26-.067.433-.2.52-.4.087-.2.13-.493.13-.88V5.37c0-.387-.043-.677-.13-.87s-.26-.327-.52-.4c-.261-.073-.644-.11-1.15-.11-.04,0-.06-.04-.06-.12s.02-.12.06-.12c.32,0,.677.01,1.07.03.393.02.81.03,1.25.03.466,0,.896-.01,1.29-.03.393-.02.743-.03,1.05-.03.026,0,.04.04.04.12s-.014.12-.04.12c-.507,0-.887.04-1.14.12-.254.08-.424.22-.511.42-.087.2-.13.494-.13.88v9.22Z"/>
    <path d="M101.078,14.17V4.21l.439.04v9.92c0,.68.113,1.157.34,1.43s.62.41,1.181.41c.04,0,.06.04.06.12s-.02.12-.06.12c-.254,0-.518-.006-.79-.02-.273-.013-.577-.02-.91-.02-.32,0-.627.007-.92.02-.294.014-.573.02-.84.02-.027,0-.04-.04-.04-.12s.013-.12.04-.12c.586,0,.982-.136,1.189-.41s.311-.75.311-1.43ZM111.138,16.47c0,.026-.033.043-.1.05-.067.006-.113.003-.141-.01l-9.04-11.12c-.453-.547-.856-.917-1.21-1.11-.354-.193-.689-.29-1.01-.29-.04,0-.06-.04-.06-.12s.02-.12.06-.12c.227,0,.46.007.7.02s.453.02.64.02.363-.007.53-.02.29-.02.37-.02c.173,0,.293.077.359.23.067.153.254.423.561.81l8.18,10.16.16,1.52ZM111.138,5.85v10.62l-.439-.62V5.85c0-.68-.107-1.16-.32-1.44-.214-.28-.601-.42-1.16-.42-.027,0-.04-.04-.04-.12s.013-.12.04-.12c.267,0,.536.01.81.03s.577.03.91.03c.307,0,.613-.01.92-.03s.587-.03.841-.03c.039,0,.06.04.06.12s-.021.12-.06.12c-.574,0-.978.14-1.211.42-.233.28-.35.76-.35,1.44Z"/>
    <path d="M120.417,14.63V5.37c0-.387-.043-.677-.13-.87s-.257-.327-.51-.4-.634-.11-1.14-.11c-.027,0-.04-.04-.04-.12s.013-.12.04-.12c.319,0,.677.01,1.069.03.394.02.804.03,1.23.03.467,0,.894-.01,1.28-.03s.732-.03,1.04-.03c.026,0,.04.04.04.12s-.014.12-.04.12c-.507,0-.888.04-1.141.12s-.423.22-.51.42c-.087.2-.13.494-.13.88v9.22c0,.387.04.68.12.88.08.2.25.333.51.4s.644.1,1.15.1c.026,0,.04.04.04.12s-.014.12-.04.12c-.32,0-.67-.006-1.051-.02-.38-.013-.803-.02-1.27-.02-.427,0-.84.007-1.24.02-.399.014-.76.02-1.08.02-.026,0-.04-.04-.04-.12s.014-.12.04-.12c.507,0,.891-.033,1.15-.1s.433-.2.52-.4c.087-.2.13-.493.13-.88ZM120.737,10.37l5.141-5.12c.506-.506.729-.843.67-1.01-.061-.167-.443-.25-1.15-.25-.027,0-.04-.04-.04-.12s.013-.12.04-.12c.32,0,.644.01.97.03.327.02.757.03,1.29.03.493,0,.884-.01,1.17-.03.287-.02.563-.03.83-.03.04,0,.061.04.061.12s-.021.12-.061.12c-.453,0-.979.093-1.58.28-.6.187-1.18.553-1.739,1.1l-5.12,4.98-.48.02ZM125.357,13.35l-3.28-4.08.84-.6,2.881,3.62c.626.787,1.156,1.423,1.59,1.91.433.487.796.856,1.09,1.11.293.253.553.43.78.53.227.1.442.154.649.16.207.007.437.01.69.01.04,0,.06.04.06.12s-.02.12-.06.12h-2.24c-.094,0-.17.003-.229.01-.061.007-.124.01-.19.01-.187,0-.333-.033-.44-.1-.106-.066-.229-.2-.369-.4-.141-.2-.344-.493-.61-.88s-.653-.9-1.16-1.54Z"/>
  </g>
  <g>
    <path d="M7.808,104.379c-.243,0-.458.079-.644.238s-.28.354-.28.588.105.448.315.644c.21.196.462.376.756.539.294.164.59.339.889.525.298.187.553.425.763.714.21.289.315.621.315.994,0,.551-.208,1.02-.623,1.407-.416.387-.917.581-1.505.581-.374,0-.721-.082-1.043-.245-.322-.163-.558-.38-.707-.651v-.672c.354.784.924,1.176,1.708,1.176.485,0,.894-.148,1.225-.447.332-.299.497-.633.497-1.001s-.105-.68-.315-.932-.464-.467-.763-.644c-.299-.178-.595-.353-.889-.525s-.546-.383-.756-.63c-.21-.247-.315-.536-.315-.868s.133-.611.399-.84c.266-.229.609-.343,1.029-.343s.779.163,1.078.49v.573c-.299-.447-.677-.672-1.134-.672Z"/>
    <path d="M16.425,104.408c.396-.271.879-.406,1.449-.406s1.069.205,1.498.616.644.966.644,1.666v4.172h-.448v-4.172c0-.541-.177-.992-.532-1.352-.355-.358-.782-.538-1.281-.538s-.942.187-1.33.56c-.388.373-.581.808-.581,1.302v4.2h-.448v-4.2c0-.504-.177-.94-.532-1.309-.355-.369-.784-.553-1.288-.553s-.943.187-1.316.56c-.374.373-.56.808-.56,1.302v4.2h-.448v-6.3h.448v.882c.187-.28.464-.522.833-.729.369-.205.751-.308,1.148-.308s.777.138,1.141.413c.364.275.63.633.798,1.071.14-.448.408-.808.805-1.078Z"/>
    <path d="M27.982,104.156v6.3h-.448v-1.568c-.262.532-.654.952-1.176,1.261-.523.308-1.083.462-1.68.462-.915,0-1.699-.324-2.352-.974-.654-.648-.98-1.425-.98-2.331s.326-1.682.98-2.331c.653-.648,1.437-.973,2.352-.973.597,0,1.169.159,1.715.477s.926.737,1.141,1.26v-1.582h.448ZM21.794,107.32c0,.784.287,1.463.861,2.037.574.573,1.255.86,2.044.86s1.463-.287,2.023-.86c.56-.574.84-1.256.84-2.044s-.282-1.473-.847-2.052c-.565-.578-1.239-.867-2.023-.867s-1.463.291-2.037.875c-.574.583-.861,1.267-.861,2.051Z"/>
    <path d="M35.514,104.156h.447v5.712c0,1.082-.299,1.937-.896,2.562-.598.626-1.382.938-2.352.938-.533,0-1.051-.121-1.555-.364-.504-.242-.896-.56-1.176-.952v-.644c.243.448.623.821,1.141,1.12.518.298,1.047.447,1.589.447.82,0,1.492-.277,2.016-.833.522-.555.784-1.313.784-2.274v-.938c-.252.514-.649.925-1.19,1.232s-1.102.462-1.68.462c-.915,0-1.699-.324-2.352-.973-.654-.648-.98-1.426-.98-2.331s.326-1.683.98-2.331c.653-.648,1.437-.974,2.352-.974.606,0,1.173.152,1.701.455.526.304.917.722,1.169,1.253v-1.567ZM29.76,107.32c0,.793.287,1.477.861,2.051.574.574,1.255.861,2.044.861s1.463-.287,2.023-.861c.56-.574.84-1.258.84-2.051s-.28-1.478-.84-2.051c-.561-.574-1.234-.861-2.023-.861s-1.47.287-2.044.861c-.574.573-.861,1.258-.861,2.051Z"/>
    <path d="M40.792,110.624h-.126c-.887,0-1.659-.334-2.317-1.001s-.987-1.444-.987-2.331.327-1.654.98-2.303,1.461-.974,2.422-.974,1.787.383,2.479,1.148l-4.396,4.34c.606.485,1.19.729,1.75.729s1.062-.129,1.505-.386c.443-.256.81-.6,1.1-1.028v.714c-.663.728-1.466,1.092-2.408,1.092ZM40.644,104.408c-.742,0-1.399.287-1.974.861-.574.573-.861,1.234-.861,1.98s.247,1.4.742,1.96l4.074-4.046c-.579-.504-1.239-.756-1.981-.756Z"/>
    <path d="M45.02,110.456h-.448v-6.3h.448v1.273c.476-.951,1.288-1.428,2.436-1.428.784,0,1.442.271,1.975.812.532.541.798,1.199.798,1.974v3.668h-.448v-3.668c0-.644-.227-1.204-.679-1.68-.453-.477-1.001-.714-1.646-.714s-1.211.237-1.7.714c-.49.476-.735,1.036-.735,1.68v3.668Z"/>
    <path d="M63.093,104.156v6.3h-.448v-1.568c-.261.532-.653.952-1.176,1.261-.522.308-1.083.462-1.68.462-.915,0-1.699-.324-2.353-.974-.653-.648-.979-1.425-.979-2.331s.326-1.682.979-2.331c.653-.648,1.438-.973,2.353-.973.597,0,1.169.159,1.715.477s.926.737,1.141,1.26v-1.582h.448ZM56.906,107.32c0,.784.286,1.463.86,2.037.574.573,1.255.86,2.044.86s1.463-.287,2.023-.86c.56-.574.84-1.256.84-2.044s-.282-1.473-.847-2.052c-.565-.578-1.239-.867-2.023-.867s-1.463.291-2.037.875c-.574.583-.86,1.267-.86,2.051Z"/>
    <path d="M67.167,101.608v.392c-.542,0-1.001.187-1.379.56-.379.374-.567.846-.567,1.414v3.683h1.96v.392h-1.96v2.408h-.448v-6.482c0-.69.233-1.257.7-1.7s1.031-.665,1.694-.665Z"/>
    <path d="M73.411,99.956h.448c1.568,0,2.833.516,3.794,1.547s1.442,2.269,1.442,3.71-.479,2.677-1.436,3.703-2.224,1.54-3.801,1.54h-.448v-10.5ZM73.972,100.375h-.112v9.646h.112c1.362,0,2.479-.472,3.353-1.414.873-.943,1.31-2.074,1.31-3.396s-.437-2.457-1.31-3.409c-.873-.951-1.99-1.428-3.353-1.428Z"/>
    <path d="M86.852,104.156v6.3h-.448v-1.568c-.261.532-.653.952-1.176,1.261-.522.308-1.083.462-1.68.462-.915,0-1.699-.324-2.353-.974-.653-.648-.979-1.425-.979-2.331s.326-1.682.979-2.331c.653-.648,1.438-.973,2.353-.973.597,0,1.169.159,1.715.477s.926.737,1.141,1.26v-1.582h.448ZM80.664,107.32c0,.784.286,1.463.86,2.037.574.573,1.255.86,2.044.86s1.463-.287,2.023-.86c.56-.574.84-1.256.84-2.044s-.282-1.473-.847-2.052c-.565-.578-1.239-.867-2.023-.867s-1.463.291-2.037.875c-.574.583-.86,1.267-.86,2.051Z"/>
    <path d="M88.979,110.456h-.448v-6.3h.448v1.273c.476-.951,1.288-1.428,2.436-1.428.784,0,1.442.271,1.975.812.532.541.798,1.199.798,1.974v3.668h-.448v-3.668c0-.644-.227-1.204-.679-1.68-.453-.477-1.001-.714-1.646-.714s-1.211.237-1.7.714c-.49.476-.735,1.036-.735,1.68v3.668Z"/>
    <path d="M101.039,104.408c.396-.271.88-.406,1.449-.406s1.068.205,1.498.616.644.966.644,1.666v4.172h-.447v-4.172c0-.541-.178-.992-.532-1.352-.354-.358-.782-.538-1.281-.538s-.942.187-1.33.56c-.387.373-.581.808-.581,1.302v4.2h-.447v-4.2c0-.504-.178-.94-.532-1.309-.354-.369-.784-.553-1.288-.553s-.943.187-1.316.56-.56.808-.56,1.302v4.2h-.448v-6.3h.448v.882c.187-.28.464-.522.833-.729.368-.205.751-.308,1.147-.308s.777.138,1.142.413.63.633.798,1.071c.14-.448.408-.808.805-1.078Z"/>
    <path d="M112.597,104.156v6.3h-.448v-1.568c-.261.532-.653.952-1.176,1.261-.522.308-1.083.462-1.68.462-.915,0-1.699-.324-2.353-.974-.653-.648-.979-1.425-.979-2.331s.326-1.682.979-2.331c.653-.648,1.438-.973,2.353-.973.597,0,1.169.159,1.715.477s.926.737,1.141,1.26v-1.582h.448ZM106.409,107.32c0,.784.286,1.463.86,2.037.574.573,1.255.86,2.044.86s1.463-.287,2.023-.86c.56-.574.84-1.256.84-2.044s-.282-1.473-.847-2.052c-.565-.578-1.239-.867-2.023-.867s-1.463.291-2.037.875c-.574.583-.86,1.267-.86,2.051Z"/>
    <path d="M116.601,104.394c-.495,0-.931.187-1.309.56-.379.373-.567.808-.567,1.302v4.2h-.448v-6.3h.448v.938c.168-.316.429-.578.784-.784.354-.205.751-.308,1.189-.308s.858.149,1.261.448v.56c-.411-.41-.864-.615-1.358-.615Z"/>
    <path d="M119.148,99.984h.448v6.355l2.492-2.184h.573l-2.884,2.52,3.612,3.78h-.602l-3.192-3.318v3.318h-.448v-10.472Z"/>
  </g>
</svg>